<?xml version="1.0" encoding="UTF-8"?>
<svg xmlns="http://www.w3.org/2000/svg" viewBox="0 0 900 650" width="900" height="650">
  <style>
    .bg { fill: #f2f2f2; }
    .title { font: bold 22px -apple-system, Segoe UI, sans-serif; fill: #111; }
    .subtitle { font: 13px -apple-system, Segoe UI, sans-serif; fill: #666; }
    .row-label { font: bold 13px -apple-system, Segoe UI, sans-serif; fill: #111; text-anchor: end; }
    .axis { font: 11px -apple-system, Segoe UI, sans-serif; fill: #666; }
    .bar-std { fill: #1e40af; }
    .bar-arc { fill: #dc2626; }
    .bar-lbl { font: 11px -apple-system, Segoe UI, sans-serif; fill: #fff; font-weight: bold; }
    .legend { font: 12px -apple-system, Segoe UI, sans-serif; fill: #333; }
    .gridline { stroke: #e5e7eb; stroke-width: 1; }
  </style>
  <rect x="0" y="0" width="900" height="650" class="bg"/>
  <text x="450" y="35" text-anchor="middle" class="title">ARC-100 overlap with each standard</text>
  <text x="450" y="58" text-anchor="middle" class="subtitle">Two bars per standard: blue = % of standard covered by ARC-100 &#160;|&#160; red = % of ARC-100 covered by standard</text>
  <rect x="280" y="78" width="14" height="12" class="bar-std"/>
  <text x="300" y="89" class="legend">% of standard in ARC-100</text>
  <rect x="500" y="78" width="14" height="12" class="bar-arc"/>
  <text x="520" y="89" class="legend">% of ARC-100 in standard</text>
  <line x1="240.0" y1="110" x2="240.0" y2="560" class="gridline"/>
  <text x="240.0" y="578" text-anchor="middle" class="axis">0%</text>
  <line x1="380.0" y1="110" x2="380.0" y2="560" class="gridline"/>
  <text x="380.0" y="578" text-anchor="middle" class="axis">25%</text>
  <line x1="520.0" y1="110" x2="520.0" y2="560" class="gridline"/>
  <text x="520.0" y="578" text-anchor="middle" class="axis">50%</text>
  <line x1="660.0" y1="110" x2="660.0" y2="560" class="gridline"/>
  <text x="660.0" y="578" text-anchor="middle" class="axis">75%</text>
  <line x1="800.0" y1="110" x2="800.0" y2="560" class="gridline"/>
  <text x="800.0" y="578" text-anchor="middle" class="axis">100%</text>
  <text x="228" y="130" class="row-label">arc42</text>
  <text x="228" y="146" class="row-label" style="font-weight: normal; fill: #666;">(12 sections)</text>
  <rect x="240" y="118" width="420.0" height="14" class="bar-std"/>
  <text x="656.0" y="129" text-anchor="end" class="bar-lbl">75%</text>
  <rect x="240" y="134" width="67.2" height="14" class="bar-arc"/>
  <text x="303.2" y="145" text-anchor="end" class="bar-lbl">12%</text>
  <text x="228" y="180" class="row-label">C4 model</text>
  <text x="228" y="196" class="row-label" style="font-weight: normal; fill: #666;">(4 levels)</text>
  <rect x="240" y="168" width="560.0" height="14" class="bar-std"/>
  <text x="796.0" y="179" text-anchor="end" class="bar-lbl">100%</text>
  <rect x="240" y="184" width="28.0" height="14" class="bar-arc"/>
  <text x="272.0" y="195" text-anchor="start" class="bar-lbl" style="fill: #991b1b;">5%</text>
  <text x="228" y="230" class="row-label">4+1 View (Kruchten)</text>
  <text x="228" y="246" class="row-label" style="font-weight: normal; fill: #666;">(5 views)</text>
  <rect x="240" y="218" width="560.0" height="14" class="bar-std"/>
  <text x="796.0" y="229" text-anchor="end" class="bar-lbl">100%</text>
  <rect x="240" y="234" width="39.2" height="14" class="bar-arc"/>
  <text x="275.2" y="245" text-anchor="end" class="bar-lbl">7%</text>
  <text x="228" y="280" class="row-label">IEEE/ISO/IEC 42010</text>
  <text x="228" y="296" class="row-label" style="font-weight: normal; fill: #666;">(meta-framework)</text>
  <rect x="240" y="268" width="392.0" height="14" class="bar-std"/>
  <text x="628.0" y="279" text-anchor="end" class="bar-lbl">70%</text>
  <rect x="240" y="284" width="56.0" height="14" class="bar-arc"/>
  <text x="292.0" y="295" text-anchor="end" class="bar-lbl">10%</text>
  <text x="228" y="330" class="row-label">AWS Well-Architected</text>
  <text x="228" y="346" class="row-label" style="font-weight: normal; fill: #666;">(6 pillars)</text>
  <rect x="240" y="318" width="375.2" height="14" class="bar-std"/>
  <text x="611.2" y="329" text-anchor="end" class="bar-lbl">67%</text>
  <rect x="240" y="334" width="156.8" height="14" class="bar-arc"/>
  <text x="392.8" y="345" text-anchor="end" class="bar-lbl">28%</text>
  <text x="228" y="380" class="row-label">SWEBOK</text>
  <text x="228" y="396" class="row-label" style="font-weight: normal; fill: #666;">(15 KAs)</text>
  <rect x="240" y="368" width="252.0" height="14" class="bar-std"/>
  <text x="488.0" y="379" text-anchor="end" class="bar-lbl">45%</text>
  <rect x="240" y="384" width="280.0" height="14" class="bar-arc"/>
  <text x="516.0" y="395" text-anchor="end" class="bar-lbl">50%</text>
  <text x="228" y="430" class="row-label">ITIL 4</text>
  <text x="228" y="446" class="row-label" style="font-weight: normal; fill: #666;">(~34 practices)</text>
  <rect x="240" y="418" width="156.8" height="14" class="bar-std"/>
  <text x="392.8" y="429" text-anchor="end" class="bar-lbl">28%</text>
  <rect x="240" y="434" width="100.8" height="14" class="bar-arc"/>
  <text x="336.8" y="445" text-anchor="end" class="bar-lbl">18%</text>
  <text x="228" y="480" class="row-label">OWASP SAMM</text>
  <text x="228" y="496" class="row-label" style="font-weight: normal; fill: #666;">(15 practices)</text>
  <rect x="240" y="468" width="375.2" height="14" class="bar-std"/>
  <text x="611.2" y="479" text-anchor="end" class="bar-lbl">67%</text>
  <rect x="240" y="484" width="95.2" height="14" class="bar-arc"/>
  <text x="331.2" y="495" text-anchor="end" class="bar-lbl">17%</text>
  <text x="228" y="530" class="row-label">DORA / Accelerate</text>
  <text x="228" y="546" class="row-label" style="font-weight: normal; fill: #666;">(24 capabilities)</text>
  <rect x="240" y="518" width="257.6" height="14" class="bar-std"/>
  <text x="493.6" y="529" text-anchor="end" class="bar-lbl">46%</text>
  <rect x="240" y="534" width="95.2" height="14" class="bar-arc"/>
  <text x="331.2" y="545" text-anchor="end" class="bar-lbl">17%</text>
  <text x="450" y="602" text-anchor="middle" class="subtitle">Asymmetry: ARC-100 covers most narrow standards well; no single standard covers most of ARC-100.</text>
</svg>